<?xml version="1.0" encoding="utf-8"?>
<!-- Generator: Adobe Illustrator 15.0.2, SVG Export Plug-In . SVG Version: 6.00 Build 0)  -->
<!DOCTYPE svg PUBLIC "-//W3C//DTD SVG 1.1//EN" "http://www.w3.org/Graphics/SVG/1.1/DTD/svg11.dtd">
<svg version="1.1" id="Layer_1" xmlns="http://www.w3.org/2000/svg" xmlns:xlink="http://www.w3.org/1999/xlink" x="0px" y="0px"
	 width="160px" height="32px" viewBox="0 0 160 32" enable-background="new 0 0 160 32" xml:space="preserve">
<path fill="#FFFFFF" d="M24,11.038c-0.588,0.261-1.221,0.438-1.885,0.517c0.678-0.406,1.197-1.05,1.443-1.816
	c-0.635,0.377-1.338,0.649-2.085,0.797c-0.599-0.638-1.452-1.036-2.396-1.036c-1.813,0-3.283,1.469-3.283,3.282
	c0,0.257,0.029,0.508,0.085,0.748c-2.728-0.137-5.147-1.443-6.766-3.43c-0.282,0.484-0.444,1.049-0.444,1.65
	c0,1.139,0.579,2.144,1.46,2.731c-0.538-0.017-1.044-0.164-1.487-0.41c0,0.014,0,0.027,0,0.041c0,1.591,1.133,2.917,2.633,3.219
	c-0.274,0.075-0.564,0.115-0.864,0.115c-0.212,0-0.417-0.021-0.617-0.06c0.417,1.305,1.63,2.254,3.065,2.28
	c-1.123,0.88-2.537,1.405-4.076,1.405c-0.265,0-0.525-0.016-0.783-0.046c1.453,0.931,3.178,1.475,5.032,1.475
	c6.038,0,9.34-5.002,9.34-9.339c0-0.143-0.003-0.284-0.01-0.425C23.004,12.274,23.561,11.696,24,11.038z"/>
<path fill="#FFFFFF" d="M51.718,13.181h-2.533v-1.661c0-0.624,0.414-0.769,0.705-0.769c0.29,0,1.786,0,1.786,0V8.009L49.215,8
	c-2.731,0-3.353,2.045-3.353,3.354v1.828h-1.58v2.824h1.58c0,3.625,0,7.995,0,7.995h3.322c0,0,0-4.412,0-7.995h2.242L51.718,13.181z
	"/>
<g>
	<polygon fill="#FFFFFF" points="87.994,10.394 85.818,10.394 85.818,8.218 84.73,8.218 84.73,10.394 82.556,10.394 82.556,11.481 
		84.73,11.481 84.73,13.656 85.818,13.656 85.818,11.481 87.994,11.481 	"/>
</g>
<g>
	<path fill="#FFFFFF" d="M80.271,17.156c-0.438-0.328-1.389-1.001-1.389-1.452c0-0.528,0.15-0.789,0.947-1.411
		c0.815-0.638,1.393-1.478,1.393-2.521c0-1.136-0.464-2.166-1.338-2.666h1.238L82.177,8c0,0-3.482,0-4.716,0
		c-2.393,0-4.388,1.765-4.388,3.706c0,1.983,1.311,3.564,3.562,3.564c0.156,0,0.309-0.009,0.457-0.02
		c-0.146,0.28-0.25,0.593-0.25,0.92c0,0.551,0.303,0.865,0.678,1.229c-0.283,0-0.557,0.008-0.855,0.008
		c-2.74,0-4.658,1.886-4.658,3.695c0,1.782,2.313,2.896,5.053,2.896c3.123,0,5.044-1.772,5.044-3.555
		C82.103,19.017,81.794,18.298,80.271,17.156z M77.546,14.55c-1.271-0.039-2.479-1.205-2.698-2.874
		c-0.221-1.669,0.633-2.946,1.903-2.909c1.271,0.039,2.358,1.408,2.577,3.077S78.816,14.587,77.546,14.55z M77.048,23.212
		c-1.894,0-3.262-1.198-3.262-2.639c0-1.411,1.604-2.629,3.499-2.607c0.441,0.004,0.854,0.075,1.227,0.196
		c1.029,0.715,1.857,1.161,2.066,1.977c0.039,0.164,0.061,0.334,0.061,0.508C80.639,22.087,79.711,23.212,77.048,23.212z"/>
</g>
<path fill="#FFFFFF" d="M112.375,8c-4.367,0-6.568,3.13-6.568,5.741c0,1.581,0.598,2.987,1.882,3.512
	c0.21,0.086,0.399,0.002,0.46-0.23c0.043-0.162,0.143-0.569,0.188-0.739c0.062-0.23,0.038-0.311-0.132-0.512
	c-0.37-0.437-0.606-1.001-0.606-1.802c0-2.322,1.737-4.401,4.524-4.401c2.468,0,3.824,1.508,3.824,3.522
	c0,2.65-1.173,4.887-2.914,4.887c-0.962,0-1.681-0.796-1.45-1.772c0.276-1.164,0.811-2.42,0.811-3.26c0-0.752-0.402-1.38-1.238-1.38
	c-0.983,0-1.773,1.017-1.773,2.379c0,0.867,0.294,1.454,0.294,1.454s-1.006,4.263-1.183,5.009c-0.352,1.486-0.053,3.309-0.027,3.492
	c0.015,0.109,0.155,0.135,0.219,0.053c0.09-0.119,1.261-1.564,1.659-3.008c0.112-0.408,0.646-2.526,0.646-2.526
	c0.319,0.609,1.253,1.146,2.245,1.146c2.954,0,4.959-2.694,4.959-6.299C118.193,10.539,115.884,8,112.375,8z"/>
<g>
	<path fill="#FFFFFF" d="M148.051,13.087c-1.82,0-2.635,0.999-3.092,1.703v0.034h-0.022c0.008-0.01,0.017-0.022,0.022-0.034v-1.46
		h-3.429c0.044,0.967,0,10.317,0,10.317h3.429v-5.762c0-0.311,0.022-0.615,0.113-0.836c0.248-0.615,0.813-1.256,1.76-1.256
		c1.242,0,1.738,0.948,1.738,2.334v5.52H152V17.73C152,14.561,150.307,13.087,148.051,13.087z"/>
	<path fill="#FFFFFF" d="M137.939,8.354c-1.172,0-1.939,0.771-1.939,1.784c0,0.989,0.744,1.783,1.895,1.783h0.022
		c1.196,0,1.94-0.794,1.94-1.783C139.836,9.125,139.113,8.354,137.939,8.354z"/>
	<rect x="136.202" y="13.33" fill="#FFFFFF" width="3.431" height="10.317"/>
</g>
</svg>
